<svg width="246" height="73" viewBox="0 0 246 73" fill="none" xmlns="http://www.w3.org/2000/svg">
<path d="M3 47.14C3 43.86 4.08 41.54 6.24 40.18L23.52 29.44V17.08H7.74V24.4H3.06V13H20.52C23.48 13 25.56 13.52 26.76 14.56C27.88 15.52 28.44 17.32 28.44 19.96V26.98C28.44 29.74 27.46 31.72 25.5 32.92L7.68 44.2V53.92H23.46V48.4H28.5V58H3V47.14ZM52.2834 13C54.7234 13 56.4834 13.68 57.5634 15.04C58.6834 16.36 59.2434 18.34 59.2434 20.98V49.84C59.2434 52.72 58.7634 54.8 57.8034 56.08C56.8434 57.36 55.1034 58 52.5834 58H42.2634C38.4234 58 36.1634 56.56 35.4834 53.68C35.2434 52.8 35.1234 51.82 35.1234 50.74V20.98C35.1234 18.3 35.5634 16.36 36.4434 15.16C37.4434 13.72 39.2234 13 41.7834 13H52.2834ZM39.9234 53.92H54.4434V17.08H39.9234V53.92ZM65.8711 47.14C65.8711 43.86 66.9511 41.54 69.1111 40.18L86.3911 29.44V17.08H70.6111V24.4H65.9311V13H83.3911C86.3511 13 88.4311 13.52 89.6311 14.56C90.7511 15.52 91.3111 17.32 91.3111 19.96V26.98C91.3111 29.74 90.3311 31.72 88.3711 32.92L70.5511 44.2V53.92H86.3311V48.4H91.3711V58H65.8711V47.14ZM107.415 53.92H114.015V46.42H94.9945L113.955 13H118.815V42.34H123.135V46.42H118.815V53.92H123.135V58H107.415V53.92ZM114.015 21.94L102.375 42.34H114.015V21.94ZM158.784 53.92H162.684V58H150.084V53.92H153.864V17.08H150.084V13H176.064V24.1H171.984V17.08H158.784V53.92ZM197.741 13C200.181 13 201.941 13.68 203.021 15.04C204.141 16.36 204.701 18.34 204.701 20.98V49.84C204.701 52.72 204.221 54.8 203.261 56.08C202.301 57.36 200.561 58 198.041 58H186.521C182.681 58 180.421 56.56 179.741 53.68C179.501 52.8 179.381 51.82 179.381 50.74V20.98C179.381 18.3 179.821 16.36 180.701 15.16C181.701 13.72 183.481 13 186.041 13H197.741ZM184.181 53.92H199.901V17.08H184.181V53.92ZM226.291 17.08H221.611V13H239.191V53.92H243.931V67H239.131V58H212.791V67H207.991V53.92H213.211L226.291 17.08ZM234.331 17.08H230.971L218.011 53.92H234.331V17.08Z" fill="black"/>
</svg>
