<svg width="218" height="118" viewBox="0 0 218 118" fill="none" xmlns="http://www.w3.org/2000/svg">
<path d="M179.5 38.3695L179.5 41.3695L180.743 41.3695L181.621 40.4909L179.5 38.3695ZM82.939 38.3695C82.939 29.533 75.7755 22.3695 66.939 22.3695C58.1024 22.3695 50.939 29.533 50.939 38.3695C50.939 47.2061 58.1024 54.3695 66.939 54.3695C75.7755 54.3695 82.939 47.2061 82.939 38.3695ZM74.3839 101.651L74.3839 104.651L75.6266 104.651L76.5052 103.773L74.3839 101.651ZM32.0002 101.651C32.0002 92.8148 24.8368 85.6514 16.0002 85.6513C7.16368 85.6513 0.000244913 92.8148 0.000244141 101.651C0.000243368 110.488 7.16368 117.651 16.0002 117.651C24.8368 117.651 32.0002 110.488 32.0002 101.651ZM179.5 35.3695L137.666 35.3695L137.666 41.3695L179.5 41.3695L179.5 35.3695ZM137.666 35.3695L66.939 35.3695L66.939 41.3695L137.666 41.3695L137.666 35.3695ZM135.544 36.2482L72.2626 99.53L76.5052 103.773L139.787 40.4909L135.544 36.2482ZM74.3839 98.6513L16.0002 98.6513L16.0002 104.651L74.3839 104.651L74.3839 98.6513ZM181.621 40.4909L217.621 4.491L213.379 0.248352L177.379 36.2482L181.621 40.4909Z" fill="black"/>
</svg>
