<svg width="265" height="179" viewBox="0 0 265 179" fill="none" xmlns="http://www.w3.org/2000/svg">
<path d="M171.282 58.5V55.5H170.039L169.161 56.3787L171.282 58.5ZM233 58.5C233 67.3366 240.164 74.5 249 74.5C257.837 74.5 265 67.3366 265 58.5C265 49.6634 257.837 42.5 249 42.5C240.164 42.5 233 49.6634 233 58.5ZM125.641 48.0002L123.52 45.8789L122.641 46.7576V48.0002H125.641ZM141.282 16.3594C141.282 25.1959 148.445 32.3594 157.282 32.3594C166.118 32.3594 173.282 25.1959 173.282 16.3594C173.282 7.52282 166.118 0.359375 157.282 0.359375C148.445 0.359375 141.282 7.52282 141.282 16.3594ZM164.5 104.141C164.5 112.978 171.663 120.141 180.5 120.141C189.337 120.141 196.5 112.978 196.5 104.141C196.5 95.3046 189.337 88.1411 180.5 88.1411C171.663 88.1411 164.5 95.3046 164.5 104.141ZM171.282 61.5H249V55.5H171.282V61.5ZM4.9033 229.121L127.762 106.262L123.52 102.02L0.660662 224.879L4.9033 229.121ZM127.762 106.262L173.403 60.6213L169.161 56.3787L123.52 102.02L127.762 106.262ZM128.641 104.141V48.0002H122.641V104.141H128.641ZM127.762 50.1216L159.403 18.4807L155.16 14.2381L123.52 45.8789L127.762 50.1216ZM125.641 107.141H180.5V101.141H125.641V107.141Z" fill="black"/>
</svg>
