<svg width="120" height="120" viewBox="0 0 120 120" fill="none" xmlns="http://www.w3.org/2000/svg">
<path fill-rule="evenodd" clip-rule="evenodd" d="M29.7796 0C13.3328 0 0 13.3328 0 29.7797V90.2204C0 106.667 13.3328 120 29.7797 120H90.2204C106.667 120 120 106.667 120 90.2204V29.7796C120 13.3328 106.667 0 90.2204 0H29.7796ZM64.469 72.2011V42.9824L52.9846 45.9511C51.8215 46.2636 51.0576 46.6282 50.693 47.0449C50.3284 47.4442 50.1461 47.9997 50.1461 48.7115C50.1461 49.4928 50.3892 50.1525 50.8753 50.6907C51.3787 51.2289 51.969 51.498 52.6461 51.498C53.028 51.498 53.601 51.3938 54.3649 51.1855L59.1305 49.9355V72.2011H53.7399C52.4551 72.2011 51.535 72.4529 50.9794 72.9563C50.4412 73.4425 50.1721 74.0761 50.1721 74.8574C50.1721 75.656 50.4412 76.307 50.9794 76.8105C51.535 77.2966 52.4551 77.5397 53.7399 77.5397H69.8596C71.1444 77.5397 72.0558 77.2966 72.594 76.8105C73.1496 76.307 73.4274 75.6647 73.4274 74.8834C73.4274 74.0848 73.1496 73.4425 72.594 72.9563C72.0558 72.4529 71.1444 72.2011 69.8596 72.2011H64.469Z" fill="black"/>
</svg>
