<svg width="410" height="101" viewBox="0 0 410 101" fill="none" xmlns="http://www.w3.org/2000/svg">
<path d="M2.5625 10.4375C2.5625 10.0104 2.64062 9.60938 2.79688 9.23438C2.96354 8.85938 3.18229 8.53646 3.45312 8.26562C3.73438 7.98438 4.0625 7.76562 4.4375 7.60938C4.8125 7.44271 5.20833 7.35938 5.625 7.35938H14.2031V0.953125H17.2812V24H14.2031V21.1875C14.1719 21.5729 14.0677 21.9375 13.8906 22.2812C13.7135 22.625 13.4844 22.9271 13.2031 23.1875C12.9323 23.4375 12.6198 23.6354 12.2656 23.7812C11.9115 23.9271 11.5365 24 11.1406 24H5.625C5.20833 24 4.8125 23.9219 4.4375 23.7656C4.0625 23.599 3.73438 23.3802 3.45312 23.1094C3.18229 22.8281 2.96354 22.5 2.79688 22.125C2.64062 21.75 2.5625 21.349 2.5625 20.9219V10.4375ZM5.625 20.9219H14.2031V10.4375H5.625V20.9219ZM36.4844 17.25H25.4688V20.9219H36.4844V24H25.4688C25.0521 24 24.6562 23.9219 24.2812 23.7656C23.9062 23.599 23.5781 23.3802 23.2969 23.1094C23.026 22.8281 22.8073 22.5 22.6406 22.125C22.4844 21.75 22.4062 21.349 22.4062 20.9219V10.4375C22.4062 10.0104 22.4844 9.60938 22.6406 9.23438C22.8073 8.85938 23.026 8.53646 23.2969 8.26562C23.5781 7.98438 23.9062 7.76562 24.2812 7.60938C24.6562 7.44271 25.0521 7.35938 25.4688 7.35938H33.4062C33.8333 7.35938 34.2344 7.44271 34.6094 7.60938C34.9844 7.76562 35.3073 7.98438 35.5781 8.26562C35.8594 8.53646 36.0781 8.85938 36.2344 9.23438C36.401 9.60938 36.4844 10.0104 36.4844 10.4375V17.25ZM25.4688 10.4375V14.1719H33.4062V10.4375H25.4688ZM51.6719 20.9219V17.0625H44.375C43.9479 17.0625 43.5469 16.9844 43.1719 16.8281C42.7969 16.6615 42.4688 16.4427 42.1875 16.1719C41.9167 15.8906 41.6979 15.5625 41.5312 15.1875C41.375 14.8125 41.2969 14.4115 41.2969 13.9844V10.4375C41.2969 10.0104 41.375 9.60938 41.5312 9.23438C41.6979 8.85938 41.9167 8.53646 42.1875 8.26562C42.4688 7.98438 42.7969 7.76562 43.1719 7.60938C43.5469 7.44271 43.9479 7.35938 44.375 7.35938H54.1094V10.4375H44.375V13.9844H51.6719C52.099 13.9844 52.4948 14.0677 52.8594 14.2344C53.2344 14.3906 53.5625 14.6094 53.8438 14.8906C54.125 15.1615 54.3438 15.4844 54.5 15.8594C54.6667 16.2344 54.75 16.6354 54.75 17.0625V20.9219C54.75 21.349 54.6667 21.75 54.5 22.125C54.3438 22.5 54.125 22.8281 53.8438 23.1094C53.5625 23.3802 53.2344 23.599 52.8594 23.7656C52.4948 23.9219 52.099 24 51.6719 24H41.2969V20.9219H51.6719ZM62.7969 7.35938V24H59.7188V7.35938H62.7969ZM59.5625 0.953125H62.9531V4.15625H59.5625V0.953125ZM68.0938 10.4375C68.0938 10.0104 68.1719 9.60938 68.3281 9.23438C68.4948 8.85938 68.7135 8.53646 68.9844 8.26562C69.2656 7.98438 69.5938 7.76562 69.9688 7.60938C70.3438 7.44271 70.7396 7.35938 71.1562 7.35938H76.6719C77.0781 7.35938 77.4635 7.4375 77.8281 7.59375C78.1927 7.73958 78.5104 7.94792 78.7812 8.21875C79.0625 8.47917 79.2865 8.79167 79.4531 9.15625C79.6302 9.51042 79.724 9.89062 79.7344 10.2969V7.35938H82.8125V27.6406C82.8125 28.0677 82.7292 28.4688 82.5625 28.8438C82.4062 29.2188 82.1875 29.5417 81.9062 29.8125C81.6354 30.0938 81.3125 30.3125 80.9375 30.4688C80.5625 30.6354 80.1615 30.7188 79.7344 30.7188H70.0156V27.6406H79.7344V23.3594H71.1562C70.7396 23.3594 70.3438 23.2812 69.9688 23.125C69.5938 22.9583 69.2656 22.7396 68.9844 22.4688C68.7135 22.1875 68.4948 21.8594 68.3281 21.4844C68.1719 21.1094 68.0938 20.7083 68.0938 20.2812V10.4375ZM79.7344 20.2812V10.4375H71.1562V20.2812H79.7344ZM102.656 24H99.5781V10.4375H91V24H87.9375V7.35938H91V10.2969C91.0208 9.89062 91.1146 9.51042 91.2812 9.15625C91.4479 8.79167 91.6667 8.47917 91.9375 8.21875C92.2188 7.94792 92.5417 7.73958 92.9062 7.59375C93.2708 7.4375 93.6615 7.35938 94.0781 7.35938H99.5781C100.005 7.35938 100.406 7.44271 100.781 7.60938C101.156 7.76562 101.479 7.98438 101.75 8.26562C102.031 8.53646 102.25 8.85938 102.406 9.23438C102.573 9.60938 102.656 10.0104 102.656 10.4375V24ZM121.859 17.25H110.844V20.9219H121.859V24H110.844C110.427 24 110.031 23.9219 109.656 23.7656C109.281 23.599 108.953 23.3802 108.672 23.1094C108.401 22.8281 108.182 22.5 108.016 22.125C107.859 21.75 107.781 21.349 107.781 20.9219V10.4375C107.781 10.0104 107.859 9.60938 108.016 9.23438C108.182 8.85938 108.401 8.53646 108.672 8.26562C108.953 7.98438 109.281 7.76562 109.656 7.60938C110.031 7.44271 110.427 7.35938 110.844 7.35938H118.781C119.208 7.35938 119.609 7.44271 119.984 7.60938C120.359 7.76562 120.682 7.98438 120.953 8.26562C121.234 8.53646 121.453 8.85938 121.609 9.23438C121.776 9.60938 121.859 10.0104 121.859 10.4375V17.25ZM110.844 10.4375V14.1719H118.781V10.4375H110.844ZM127 10.4375C127 10.0104 127.078 9.60938 127.234 9.23438C127.401 8.85938 127.62 8.53646 127.891 8.26562C128.172 7.98438 128.5 7.76562 128.875 7.60938C129.25 7.44271 129.646 7.35938 130.062 7.35938H138.641V0.953125H141.719V24H138.641V21.1875C138.609 21.5729 138.505 21.9375 138.328 22.2812C138.151 22.625 137.922 22.9271 137.641 23.1875C137.37 23.4375 137.057 23.6354 136.703 23.7812C136.349 23.9271 135.974 24 135.578 24H130.062C129.646 24 129.25 23.9219 128.875 23.7656C128.5 23.599 128.172 23.3802 127.891 23.1094C127.62 22.8281 127.401 22.5 127.234 22.125C127.078 21.75 127 21.349 127 20.9219V10.4375ZM130.062 20.9219H138.641V10.4375H130.062V20.9219ZM156.438 16.7344C156.438 16.3073 156.516 15.9115 156.672 15.5469C156.839 15.1719 157.057 14.8438 157.328 14.5625C157.609 14.2812 157.938 14.0625 158.312 13.9062C158.688 13.7396 159.083 13.6562 159.5 13.6562H167.438V10.4375H157.391V7.35938H167.438C167.865 7.35938 168.266 7.44271 168.641 7.60938C169.016 7.76562 169.339 7.98438 169.609 8.26562C169.891 8.53646 170.109 8.85938 170.266 9.23438C170.432 9.60938 170.516 10.0104 170.516 10.4375V24H167.438V21.1875C167.406 21.5729 167.302 21.9375 167.125 22.2812C166.948 22.625 166.719 22.9271 166.438 23.1875C166.167 23.4375 165.854 23.6354 165.5 23.7812C165.146 23.9271 164.771 24 164.375 24H159.5C159.083 24 158.688 23.9219 158.312 23.7656C157.938 23.599 157.609 23.3802 157.328 23.1094C157.057 22.8281 156.839 22.5 156.672 22.125C156.516 21.75 156.438 21.349 156.438 20.9219V16.7344ZM159.5 20.9219H167.438V16.7344H159.5V20.9219ZM190.375 24H187.297V10.4375H178.719V24H175.656V7.35938H178.719V10.2969C178.74 9.89062 178.833 9.51042 179 9.15625C179.167 8.79167 179.385 8.47917 179.656 8.21875C179.938 7.94792 180.26 7.73958 180.625 7.59375C180.99 7.4375 181.38 7.35938 181.797 7.35938H187.297C187.724 7.35938 188.125 7.44271 188.5 7.60938C188.875 7.76562 189.198 7.98438 189.469 8.26562C189.75 8.53646 189.969 8.85938 190.125 9.23438C190.292 9.60938 190.375 10.0104 190.375 10.4375V24ZM195.5 10.4375C195.5 10.0104 195.578 9.60938 195.734 9.23438C195.901 8.85938 196.12 8.53646 196.391 8.26562C196.672 7.98438 197 7.76562 197.375 7.60938C197.75 7.44271 198.146 7.35938 198.562 7.35938H207.141V0.953125H210.219V24H207.141V21.1875C207.109 21.5729 207.005 21.9375 206.828 22.2812C206.651 22.625 206.422 22.9271 206.141 23.1875C205.87 23.4375 205.557 23.6354 205.203 23.7812C204.849 23.9271 204.474 24 204.078 24H198.562C198.146 24 197.75 23.9219 197.375 23.7656C197 23.599 196.672 23.3802 196.391 23.1094C196.12 22.8281 195.901 22.5 195.734 22.125C195.578 21.75 195.5 21.349 195.5 20.9219V10.4375ZM198.562 20.9219H207.141V10.4375H198.562V20.9219ZM239.656 20.9219C239.656 21.349 239.573 21.75 239.406 22.125C239.25 22.5 239.031 22.8281 238.75 23.1094C238.479 23.3802 238.156 23.599 237.781 23.7656C237.406 23.9219 237.005 24 236.578 24H228V30.7188H224.938V7.35938H228V10.1719C228.031 9.77604 228.135 9.41146 228.312 9.07812C228.49 8.73438 228.714 8.4375 228.984 8.1875C229.255 7.92708 229.568 7.72396 229.922 7.57812C230.286 7.43229 230.672 7.35938 231.078 7.35938H236.578C237.005 7.35938 237.406 7.44271 237.781 7.60938C238.156 7.76562 238.479 7.98438 238.75 8.26562C239.031 8.53646 239.25 8.85938 239.406 9.23438C239.573 9.60938 239.656 10.0104 239.656 10.4375V20.9219ZM236.578 20.9219V10.4375H228V20.9219H236.578ZM259.172 20.9219C259.172 21.349 259.089 21.75 258.922 22.125C258.766 22.5 258.547 22.8281 258.266 23.1094C257.995 23.3802 257.672 23.599 257.297 23.7656C256.932 23.9219 256.536 24 256.109 24H247.844C247.427 24 247.031 23.9219 246.656 23.7656C246.281 23.599 245.953 23.3802 245.672 23.1094C245.401 22.8281 245.182 22.5 245.016 22.125C244.859 21.75 244.781 21.349 244.781 20.9219V10.4375C244.781 10.0104 244.859 9.60938 245.016 9.23438C245.182 8.85938 245.401 8.53646 245.672 8.26562C245.953 7.98438 246.281 7.76562 246.656 7.60938C247.031 7.44271 247.427 7.35938 247.844 7.35938H256.109C256.536 7.35938 256.932 7.44271 257.297 7.60938C257.672 7.76562 257.995 7.98438 258.266 8.26562C258.547 8.53646 258.766 8.85938 258.922 9.23438C259.089 9.60938 259.172 10.0104 259.172 10.4375V20.9219ZM247.844 10.4375V20.9219H256.109V10.4375H247.844ZM267.766 24L262.391 7.35938H265.5L269.438 19.9062L273.109 7.35938H276.25L279.922 19.9062L283.859 7.35938H286.969L281.594 24H278.391L274.672 11.7812L270.969 24H267.766ZM304.266 17.25H293.25V20.9219H304.266V24H293.25C292.833 24 292.438 23.9219 292.062 23.7656C291.688 23.599 291.359 23.3802 291.078 23.1094C290.807 22.8281 290.589 22.5 290.422 22.125C290.266 21.75 290.188 21.349 290.188 20.9219V10.4375C290.188 10.0104 290.266 9.60938 290.422 9.23438C290.589 8.85938 290.807 8.53646 291.078 8.26562C291.359 7.98438 291.688 7.76562 292.062 7.60938C292.438 7.44271 292.833 7.35938 293.25 7.35938H301.188C301.615 7.35938 302.016 7.44271 302.391 7.60938C302.766 7.76562 303.089 7.98438 303.359 8.26562C303.641 8.53646 303.859 8.85938 304.016 9.23438C304.182 9.60938 304.266 10.0104 304.266 10.4375V17.25ZM293.25 10.4375V14.1719H301.188V10.4375H293.25ZM312.469 10.4375V24H309.406V7.35938H312.469V10.2969C312.49 9.89062 312.583 9.51042 312.75 9.15625C312.917 8.79167 313.135 8.47917 313.406 8.21875C313.688 7.94792 314.01 7.73958 314.375 7.59375C314.74 7.4375 315.13 7.35938 315.547 7.35938H318.812C319.24 7.35938 319.635 7.44271 320 7.60938C320.375 7.76562 320.703 7.98438 320.984 8.26562C321.266 8.53646 321.484 8.85938 321.641 9.23438C321.807 9.60938 321.891 10.0104 321.891 10.4375V13.25H318.812V10.4375H312.469ZM339.797 17.25H328.781V20.9219H339.797V24H328.781C328.365 24 327.969 23.9219 327.594 23.7656C327.219 23.599 326.891 23.3802 326.609 23.1094C326.339 22.8281 326.12 22.5 325.953 22.125C325.797 21.75 325.719 21.349 325.719 20.9219V10.4375C325.719 10.0104 325.797 9.60938 325.953 9.23438C326.12 8.85938 326.339 8.53646 326.609 8.26562C326.891 7.98438 327.219 7.76562 327.594 7.60938C327.969 7.44271 328.365 7.35938 328.781 7.35938H336.719C337.146 7.35938 337.547 7.44271 337.922 7.60938C338.297 7.76562 338.62 7.98438 338.891 8.26562C339.172 8.53646 339.391 8.85938 339.547 9.23438C339.714 9.60938 339.797 10.0104 339.797 10.4375V17.25ZM328.781 10.4375V14.1719H336.719V10.4375H328.781ZM344.938 10.4375C344.938 10.0104 345.016 9.60938 345.172 9.23438C345.339 8.85938 345.557 8.53646 345.828 8.26562C346.109 7.98438 346.438 7.76562 346.812 7.60938C347.188 7.44271 347.583 7.35938 348 7.35938H356.578V0.953125H359.656V24H356.578V21.1875C356.547 21.5729 356.443 21.9375 356.266 22.2812C356.089 22.625 355.859 22.9271 355.578 23.1875C355.307 23.4375 354.995 23.6354 354.641 23.7812C354.286 23.9271 353.911 24 353.516 24H348C347.583 24 347.188 23.9219 346.812 23.7656C346.438 23.599 346.109 23.3802 345.828 23.1094C345.557 22.8281 345.339 22.5 345.172 22.125C345.016 21.75 344.938 21.349 344.938 20.9219V10.4375ZM348 20.9219H356.578V10.4375H348V20.9219ZM389.094 20.9219C389.094 21.349 389.01 21.75 388.844 22.125C388.688 22.5 388.469 22.8281 388.188 23.1094C387.917 23.3802 387.594 23.599 387.219 23.7656C386.844 23.9219 386.443 24 386.016 24H377.438C377.021 24 376.625 23.9219 376.25 23.7656C375.875 23.599 375.547 23.3802 375.266 23.1094C374.995 22.8281 374.776 22.5 374.609 22.125C374.453 21.75 374.375 21.349 374.375 20.9219V0.953125H377.438V10.2969C377.458 9.89062 377.552 9.51042 377.719 9.15625C377.885 8.79167 378.104 8.47917 378.375 8.21875C378.656 7.94792 378.979 7.73958 379.344 7.59375C379.708 7.4375 380.099 7.35938 380.516 7.35938H386.016C386.443 7.35938 386.844 7.44271 387.219 7.60938C387.594 7.76562 387.917 7.98438 388.188 8.26562C388.469 8.53646 388.688 8.85938 388.844 9.23438C389.01 9.60938 389.094 10.0104 389.094 10.4375V20.9219ZM377.438 10.4375V20.9219H386.016V10.4375H377.438ZM395.344 30.7188L398.828 22.5L392.297 7.35938H395.531L400.391 18.8125L405.25 7.35938H408.484L398.406 30.7188H395.344Z" fill="black"/>
<path d="M42.1868 47.0012V71.3673L56.5458 59.2496L42.1868 47.0012ZM61.9781 63.8875L42.1868 80.5902V94.9988L70.3125 71L61.9781 63.8875ZM35.1579 101V41L0 71L35.1579 101ZM28.9969 86.8934L10.3715 71L28.9969 55.1067V86.8934Z" fill="black"/>
<path d="M123.607 62.6914C123.607 66.9883 121.774 69.4375 118.107 70.0391L123.908 82.5H119.031L113.316 70.1895H103.67V82.5H99.2656V51.6914H116.131C121.115 51.6914 123.607 54.1908 123.607 59.1895V62.6914ZM103.67 65.7852H115.895C117.069 65.7852 117.914 65.5273 118.43 65.0117C118.945 64.4961 119.203 63.651 119.203 62.4766V59.4043C119.203 58.2298 118.945 57.3848 118.43 56.8691C117.914 56.3535 117.069 56.0957 115.895 56.0957H103.67V65.7852ZM128.334 51.6914H152.977V56.0957H142.857V82.5H138.453V56.0957H128.334V51.6914ZM158.262 51.6914H162.666V78.0957H180.262V51.6914H184.666V78.0957C184.666 78.6973 184.551 79.2702 184.322 79.8145C184.093 80.3444 183.778 80.8099 183.377 81.2109C182.976 81.612 182.503 81.9271 181.959 82.1562C181.429 82.3854 180.863 82.5 180.262 82.5H162.666C162.064 82.5 161.492 82.3854 160.947 82.1562C160.417 81.9271 159.952 81.612 159.551 81.2109C159.15 80.8099 158.835 80.3444 158.605 79.8145C158.376 79.2702 158.262 78.6973 158.262 78.0957V51.6914ZM196.998 51.6914V82.5H192.594V51.6914H196.998ZM202.283 51.6914H226.926V56.0957H216.807V82.5H212.402V56.0957H202.283V51.6914ZM236.615 51.6914V78.0957H252.449V82.5H232.211V51.6914H236.615ZM257.305 72.5098C257.305 71.9225 257.412 71.3783 257.627 70.877C257.856 70.3613 258.157 69.9102 258.529 69.5234C258.916 69.1367 259.367 68.8359 259.883 68.6211C260.398 68.3919 260.943 68.2773 261.516 68.2773H272.43V63.8516H258.615V59.6191H272.43C273.017 59.6191 273.568 59.7337 274.084 59.9629C274.6 60.1777 275.044 60.4785 275.416 60.8652C275.803 61.2376 276.104 61.6816 276.318 62.1973C276.548 62.7129 276.662 63.2643 276.662 63.8516V82.5H272.43V78.6328C272.387 79.1628 272.243 79.6641 272 80.1367C271.757 80.6094 271.441 81.0247 271.055 81.3828C270.682 81.7266 270.253 81.9987 269.766 82.1992C269.279 82.3997 268.763 82.5 268.219 82.5H261.516C260.943 82.5 260.398 82.3926 259.883 82.1777C259.367 81.9486 258.916 81.6478 258.529 81.2754C258.157 80.8887 257.856 80.4375 257.627 79.9219C257.412 79.4062 257.305 78.8548 257.305 78.2676V72.5098ZM261.516 78.2676H272.43V72.5098H261.516V78.2676ZM303.969 78.2676C303.969 78.8548 303.854 79.4062 303.625 79.9219C303.41 80.4375 303.109 80.8887 302.723 81.2754C302.35 81.6478 301.906 81.9486 301.391 82.1777C300.875 82.3926 300.324 82.5 299.736 82.5H287.941C287.368 82.5 286.824 82.3926 286.309 82.1777C285.793 81.9486 285.342 81.6478 284.955 81.2754C284.583 80.8887 284.282 80.4375 284.053 79.9219C283.838 79.4062 283.73 78.8548 283.73 78.2676V50.8105H287.941V63.6582C287.97 63.0996 288.099 62.5768 288.328 62.0898C288.557 61.5885 288.858 61.1589 289.23 60.8008C289.617 60.4284 290.061 60.1419 290.562 59.9414C291.064 59.7266 291.601 59.6191 292.174 59.6191H299.736C300.324 59.6191 300.875 59.7337 301.391 59.9629C301.906 60.1777 302.35 60.4785 302.723 60.8652C303.109 61.2376 303.41 61.6816 303.625 62.1973C303.854 62.7129 303.969 63.2643 303.969 63.8516V78.2676ZM287.941 63.8516V78.2676H299.736V63.8516H287.941Z" fill="black"/>
</svg>
