<svg width="120" height="120" viewBox="0 0 120 120" fill="none" xmlns="http://www.w3.org/2000/svg">
<rect x="2.79184" y="2.79184" width="114.416" height="114.416" rx="26.9878" stroke="black" stroke-width="5.58368"/>
<path d="M74.218 57.8688V64.4122C74.218 68.2898 73.0935 72.0025 70.8445 75.5505C68.6149 79.0985 65.416 80.8725 61.2476 80.8725C58.8435 80.8725 56.8078 80.349 55.1404 79.302C53.4925 78.2357 51.9221 76.2872 50.4292 73.4566C48.9557 70.6066 48.219 67.5918 48.219 64.4122V57.8688C48.219 54.0107 49.3338 50.3076 51.5634 46.7596C53.793 43.1923 56.992 41.4086 61.1603 41.4086C63.545 41.4086 65.5614 41.9321 67.2093 42.979C68.8767 44.026 70.4568 45.9744 71.9496 48.8244C73.4619 51.6551 74.218 54.6699 74.218 57.8688ZM68.2272 57.8688C68.2272 54.6311 67.3257 51.8005 65.5226 49.377C64.495 48.0392 63.0506 47.3703 61.1894 47.3703C59.3864 47.3703 57.9129 48.1071 56.769 49.5806C55.0435 51.8102 54.1807 54.5729 54.1807 57.8688V64.4122C54.1807 67.6694 55.092 70.5 56.9144 72.9041C57.9226 74.2418 59.367 74.9107 61.2476 74.9107C63.0313 74.9107 64.495 74.174 65.6389 72.7005C67.3644 70.4709 68.2272 67.7081 68.2272 64.4122V57.8688Z" fill="black"/>
</svg>
